<svg width="100%" height="81.25%" viewBox="0 0 16 13" fill="none" xmlns="http://www.w3.org/2000/svg">
<mask id="mask0" mask-type="alpha" maskUnits="userSpaceOnUse" x="0" y="0" width="16" height="13">
<path d="M16 0H0V12.1905H16V0Z" fill="white"/>
</mask>
<g mask="url(#mask0)">
<mask id="mask1" mask-type="alpha" maskUnits="userSpaceOnUse" x="0" y="3" width="2" height="2">
<path d="M0 3.33942V4.4537H1.44686V3.33942H0Z" fill="white"/>
</mask>
<g mask="url(#mask1)">
<path fill-rule="evenodd" clip-rule="evenodd" d="M1.44698 3.89635C1.44698 3.59239 1.18862 3.33914 0.878544 3.33914H0.568467C0.258389 3.33914 -9.15527e-05 3.59239 -9.15527e-05 3.89635C-9.15527e-05 4.2003 0.258389 4.45355 0.568467 4.45355H0.878544C1.18862 4.45355 1.44698 4.2003 1.44698 3.89635Z" fill="white"/>
</g>
<mask id="mask2" mask-type="alpha" maskUnits="userSpaceOnUse" x="1" y="0" width="15" height="12">
<path d="M1.91238 11.6926H15.9928V0.502472H1.91238V11.6926Z" fill="white"/>
</mask>
<g mask="url(#mask2)">
<path fill-rule="evenodd" clip-rule="evenodd" d="M15.452 3.74493C16.7956 6.5312 15.5553 9.87466 12.6096 11.1917C9.76731 12.4582 6.35645 11.2424 5.06442 8.45618C4.80607 7.89898 4.65103 7.29108 4.59931 6.68317H3.46231C3.15224 6.68317 2.89388 6.4298 2.89388 6.12585C2.89388 5.8219 3.15224 5.56864 3.46231 5.56864H5.11614C5.42622 5.56864 5.68458 5.31539 5.68458 5.01144C5.68458 4.70749 5.42622 4.45411 5.11614 4.45411H2.48048C2.17041 4.45411 1.91193 4.20086 1.91193 3.89691C1.91193 3.59296 2.17041 3.33971 2.48048 3.33971H6.14969C6.45977 3.33971 6.71813 3.08633 6.71813 2.78238C6.71813 2.47843 6.45977 2.22518 6.14969 2.22518H4.65103C4.18591 2.22518 3.77239 1.87053 3.77239 1.36402C3.77239 0.908096 4.13419 0.502747 4.65103 0.502747H10.4908C12.558 0.604145 14.5218 1.76925 15.452 3.74493ZM8.92077 3.18613C7.28666 3.92169 6.57013 5.81652 7.32052 7.41835C8.07091 9.02017 10.0039 9.72254 11.638 8.98698C13.2723 8.25142 13.9887 6.35658 13.2383 4.75476C12.4879 3.15293 10.5549 2.45056 8.92077 3.18613Z" fill="white"/>
</g>
<path fill-rule="evenodd" clip-rule="evenodd" d="M11.5246 4.25126L12.5581 5.9737C12.6098 6.07497 12.6098 6.12567 12.5581 6.22695L11.5246 7.94938C11.4728 8.05066 11.3695 8.05066 11.3178 8.05066H9.30229C9.19897 8.05066 9.14725 7.99996 9.09566 7.94938L8.06198 6.22695C8.01039 6.12567 8.01039 6.07497 8.06198 5.9737L9.09566 4.25126C9.14725 4.14999 9.2507 4.14999 9.30229 4.14999H11.3178C11.4212 4.09929 11.4728 4.14999 11.5246 4.25126Z" fill="white"/>
</g>
</svg>
