<svg width="24" height="24" viewBox="0 0 24 24" fill="none" xmlns="http://www.w3.org/2000/svg">
<path d="M4 20C4.3 20 4.5 19.8 4.5 19.5V18.5C4.5 18.2 4.3 18 4 18C3.7 18 3.5 18.2 3.5 18.5V19.5C3.5 19.7 3.7 20 4 20Z" fill="#FFC0FF"/>
<path d="M4 24C4.3 24 4.5 23.8 4.5 23.5V22.5C4.5 22.2 4.3 22 4 22C3.7 22 3.5 22.2 3.5 22.5V23.5C3.5 23.7 3.7 24 4 24Z" fill="#FFC0FF"/>
<path d="M5 21C5 21.3 5.2 21.5 5.5 21.5H6.5C6.8 21.5 7 21.2 7 21C7 20.7 6.8 20.5 6.5 20.5H5.5C5.2 20.5 5 20.7 5 21Z" fill="#FFC0FF"/>
<path d="M1 21C1 21.3 1.2 21.5 1.5 21.5H2.5C2.8 21.5 3 21.2 3 21C3 20.7 2.8 20.5 2.5 20.5H1.5C1.2 20.5 1 20.7 1 21Z" fill="#FFC0FF"/>
<path d="M12 1L6 7V17L12 23L18 17V7L12 1ZM15 15.8L12 18.8L9 15.8V8.2L12 5.2L15 8.2V15.8Z" fill="#FF73FA"/>
<path d="M2 13L2.7 14.3L4 15L2.7 15.7L2 17L1.3 15.7L0 15L1.3 14.3L2 13Z" fill="#FFC0FF"/>
<path d="M22 7L22.7 8.3L24 9L22.7 9.7L22 11L21.3 9.7L20 9L21.3 8.3L22 7Z" fill="#FFC0FF"/>
<path d="M10 14.7V15.3L12 17.3L14 15.3V10.7L10 14.7Z" fill="#FFC0FF"/>
<path d="M10 13.3L14 9.3V8.7L13.9 8.5L10 12.4V13.3Z" fill="#FFC0FF"/>
<path d="M13.1 7.8L12 6.7L10 8.7V11L13.1 7.8Z" fill="#FFC0FF"/>
<path d="M15 8.2L18 7L12 1V5.2L15 8.2Z" fill="#FFC0FF"/>
<path d="M15 15.8L18 17L12 23V18.8L15 15.8Z" fill="#FFC0FF"/>
</svg>
