<svg width="100%" height="100%" viewBox="0 0 16 16" fill="none" xmlns="http://www.w3.org/2000/svg">
<path d="M15.815 7.865L8.135 0.184998C8.10037 0.150799 8.05367 0.131622 8.005 0.131622C7.95633 0.131622 7.90962 0.150799 7.875 0.184998L0.184998 7.865C0.150799 7.89962 0.131622 7.94633 0.131622 7.995C0.131622 8.04366 0.150799 8.09037 0.184998 8.125L7.865 15.815C7.89962 15.8492 7.94633 15.8684 7.995 15.8684C8.04366 15.8684 8.09037 15.8492 8.125 15.815L15.815 8.135C15.8492 8.10037 15.8684 8.05367 15.8684 8.005C15.8684 7.95633 15.8492 7.90962 15.815 7.875V7.865ZM12.5 6.145L11 9.04C10.99 9.06657 10.9907 9.09597 11.0018 9.12206C11.013 9.14815 11.0339 9.16891 11.06 9.18H12.005C12.0186 9.1812 12.0319 9.1852 12.0439 9.19173C12.0559 9.19826 12.0665 9.2072 12.0749 9.21798C12.0834 9.22876 12.0895 9.24116 12.093 9.25441C12.0964 9.26766 12.0971 9.28147 12.095 9.295C12.0952 9.30862 12.0921 9.32208 12.086 9.33427C12.0799 9.34645 12.071 9.35699 12.06 9.365L8.1 12.225C8.08147 12.2346 8.06089 12.2397 8.04 12.2397C8.01911 12.2397 7.99853 12.2346 7.98 12.225L4 9.37C3.98102 9.34964 3.97047 9.32283 3.97047 9.295C3.97047 9.26716 3.98102 9.24036 4 9.22C4.01745 9.20179 4.04019 9.18954 4.065 9.185H4.95C4.97917 9.185 5.00715 9.17341 5.02778 9.15278C5.04841 9.13215 5.06 9.10417 5.06 9.075V9.04L3.56 6.145C3.54781 6.11908 3.54622 6.08942 3.55556 6.06235C3.5649 6.03527 3.58443 6.0129 3.61 6C3.621 5.99503 3.63293 5.99246 3.645 5.99246C3.65707 5.99246 3.669 5.99503 3.68 6L7.24 8.335C7.30515 8.37025 7.35631 8.4267 7.385 8.495L7.93 9.585C7.93534 9.5967 7.943 9.6072 7.95251 9.61585C7.96203 9.62451 7.9732 9.63114 7.98536 9.63535C7.99751 9.63956 8.0104 9.64125 8.02323 9.64033C8.03606 9.63941 8.04857 9.6359 8.06 9.63C8.08096 9.62059 8.09844 9.60485 8.11 9.585L8.635 8.5C8.6711 8.43674 8.72059 8.38213 8.78 8.34L12.34 6C12.3525 5.99407 12.366 5.99067 12.3798 5.98997C12.3936 5.98928 12.4074 5.99131 12.4204 5.99596C12.4334 6.0006 12.4453 6.00777 12.4556 6.01704C12.4658 6.02631 12.4741 6.03751 12.48 6.05C12.4911 6.06283 12.4988 6.07829 12.5023 6.09491C12.5058 6.11153 12.505 6.12877 12.5 6.145Z" fill="white"/>
</svg>
