<svg xmlns="http://www.w3.org/2000/svg" xmlns:xlink="http://www.w3.org/1999/xlink" id="Слой_1" x="0" y="0" baseProfile="tiny" version="1.2" viewBox="0 0 483 98" xml:space="preserve"><circle cx="-340" cy="167" r="257" fill="#7289DA" fill-rule="evenodd"/><rect width="573" height="144" x="-25" y="-20" fill="#101518" fill-rule="evenodd" display="none"/><path fill="#FFF" fill-rule="evenodd" d="M141.7,0.5H9.8C4.4,0.5,0,4.9,0,10.3v78.3c0,5.4,4.4,9.8,9.8,9.8h131.9	c5.4,0,9.8-4.4,9.8-9.8V10.3C151.5,4.9,147.1,0.5,141.7,0.5z M81.7,31.1c0.8-0.8,2-1.3,3.2-1.3h29.3c2.5,0,4.5,2,4.5,4.5	c0,1.3-0.5,2.4-1.3,3.2c-0.8,0.8-2,1.3-3.2,1.3H84.9c-2.5,0-4.5-2-4.5-4.5C80.3,33.1,80.8,32,81.7,31.1z M61,51.6L22.6,73.8	c-1.6,0.9-3.7-0.2-3.7-2.1V27.3c0-1.9,2-3.1,3.7-2.1L61,47.4C62.6,48.3,62.6,50.7,61,51.6z M136.1,67.9c-0.8,0.8-2,1.3-3.2,1.3h-48	c-2.5,0-4.5-2-4.5-4.5c0-1.3,0.5-2.4,1.3-3.2c0.8-0.8,2-1.3,3.2-1.3h48c2.5,0,4.5,2,4.5,4.5C137.4,65.9,136.9,67,136.1,67.9z M136.1,52.7c-0.8,0.8-2,1.3-3.2,1.3h-48c-2.5,0-4.5-2-4.5-4.5c0-1.3,0.5-2.4,1.3-3.2c0.8-0.8,2-1.3,3.2-1.3h48c2.5,0,4.5,2,4.5,4.5	C137.4,50.8,136.9,51.9,136.1,52.7z"/><g><path fill="#FFF" d="M190.7,19h24c14.7,0,21.9,10.6,21.9,21.2c0,10.7-7.4,21.3-21.9,21.3h-8.9V79h-15.2V19z M214.6,48 c9.2,0.1,9.2-14.9,0-14.8h-8.8V48H214.6z"/><path fill="#FFF" d="M261.1,59.9h-2.7V79H243V19h24c12.4,0,21.9,5.7,22.3,19.7c0,11.1-4.5,17.4-11.8,19.7L293.9,79H275 L261.1,59.9z M267.3,46.9c9.6,0,9.6-13.7,0-13.7h-8.9v13.7H267.3z"/><path fill="#FFF" d="M313.1,42.6h24.3v13.1h-24.3v9h26.4V79h-41.8V19h41.8v14.2h-26.4V42.6z"/><path fill="#FFF" d="M347.6,19h15.2l12.6,29.3L388.1,19h15.2v60H388l0.1-17.3l0.9-12.1l-0.5-0.1l-7.9,20.6h-10.4l-8.1-20.6 l-0.4,0.1l1,12.1V79h-15.2V19z"/><path fill="#FFF" d="M428,79h-15.2V19H428V79z"/><path fill="#FFF" d="M452.3,19.1c12.7,0.3,14.5,0.3,18,1.9c5.1,1.9,9.2,5.8,11.2,10.3c1.5,3.3,1.6,4.2,1.6,18 c0,13.9-0.1,14.7-1.6,18.1c-2,4.7-6.4,8.5-11.6,10.2c-3.6,1.3-5.7,1.4-18.3,1.4h-14.2v-7.1v-7H450c13.3,0,15.9-0.5,16.9-3.1 c0.2-0.6,0.4-6.5,0.4-13.1V36.5l-1.8-1.4c-1.4-1.2-2.7-1.4-7.3-1.4h-5.7v11.9c0,6.4-0.2,11.8-0.3,11.8c-0.3,0-3.7-3-7.7-6.5 l-7.3-6.5V32.1c0-6.7,0.2-12.5,0.5-12.7C438.1,19.1,444.6,18.9,452.3,19.1z"/></g><circle cx="84.5" cy="199.5" r="62" fill="#7289DA" fill-rule="evenodd"/><path fill="#FFF" fill-rule="evenodd" d="M121.4,171.7H46.6c-3.1,0-5.6,2.5-5.6,5.6v44.4c0,3.1,2.5,5.6,5.6,5.6h74.8	c3.1,0,5.6-2.5,5.6-5.6v-44.4C127,174.2,124.5,171.7,121.4,171.7z M87.3,189.1c0.5-0.5,1.1-0.8,1.8-0.8l16.5,0	c1.5,0,2.8,1.2,2.7,2.7c0,0.6-0.3,1.2-0.8,1.7c-0.5,0.5-1.1,0.8-1.8,0.8l-16.5,0c-1.5,0-2.8-1.2-2.7-2.7	C86.6,190.1,86.9,189.5,87.3,189.1z M73.8,201.7l-18.2,10.5c-1.7,1-3.9-0.2-3.9-2.2v-21c0-2,2.2-3.2,3.9-2.2l18.2,10.5	C75.5,198.3,75.5,200.7,73.8,201.7z M118.2,209.9c-0.5,0.5-1.1,0.8-1.8,0.8l-27.1,0c-1.5,0-2.8-1.2-2.7-2.7c0-0.6,0.3-1.2,0.8-1.7	c0.5-0.5,1.1-0.8,1.8-0.8l27.1,0c1.5,0,2.8,1.2,2.7,2.7C118.9,208.9,118.6,209.5,118.2,209.9z M118.2,201.3	c-0.5,0.5-1.1,0.8-1.8,0.8H89.3c-1.5,0-2.8-1.2-2.7-2.7c0-0.6,0.3-1.2,0.8-1.7c0.5-0.5,1.1-0.8,1.8-0.8h27.1c1.5,0,2.8,1.2,2.7,2.7	C118.9,200.3,118.6,200.9,118.2,201.3z"/><g><path fill="#7289DA" d="M180.7,165.2h27.4c16.8,0,25.1,12.1,25.1,24.2c0,12.2-8.4,24.3-25,24.3h-10.2v20.1h-17.3V165.2z M208.1,198.3c10.5,0.1,10.5-17,0-17h-10.1v17H208.1z"/><path fill="#7289DA" d="M261.2,212h-3.1v21.8h-17.5v-68.6H268c14.1,0,25.1,6.5,25.5,22.6c0,12.7-5.1,19.9-13.5,22.5l18.7,23.5 h-21.6L261.2,212z M268.3,197.1c10.9,0,10.9-15.7,0-15.7h-10.2v15.7H268.3z"/><path fill="#7289DA" d="M320.7,192.1h27.8v15h-27.8v10.3h30.2v16.4h-47.8v-68.6h47.8v16.3h-30.2V192.1z"/><path fill="#7289DA" d="M360.2,165.2h17.3l14.4,33.5l14.5-33.5h17.3v68.6h-17.4l0.1-19.8l1.1-13.9l-0.6-0.1l-9,23.5H386l-9.2-23.5 l-0.5,0.1l1.2,13.9v19.8h-17.3V165.2z"/><path fill="#7289DA" d="M452,233.8h-17.3v-68.6H452V233.8z"/><path fill="#7289DA" d="M479.8,165.3c14.5,0.3,16.6,0.4,20.5,2.1c5.8,2.2,10.5,6.6,12.8,11.8c1.7,3.8,1.8,4.8,1.8,20.5 c0,15.9-0.1,16.8-1.8,20.7c-2.3,5.3-7.3,9.7-13.3,11.6c-4.2,1.5-6.5,1.6-20.9,1.6h-16.3v-8.1v-8h14.5c15.2,0,18.2-0.6,19.4-3.5 c0.2-0.7,0.5-7.5,0.5-15v-13.9l-2-1.5c-1.6-1.4-3.1-1.6-8.3-1.6h-6.5v13.6c0,7.4-0.2,13.5-0.4,13.5c-0.3,0-4.3-3.4-8.8-7.5 l-8.3-7.5v-14c0-7.7,0.2-14.2,0.6-14.5C463.6,165.3,471,165.1,479.8,165.3z"/></g><path fill="#FFF" fill-rule="evenodd" d="M-178.2,46.7h-323.7c-13.3,0-24.2,10.8-24.2,24.2v192.2c0,13.3,10.8,24.2,24.2,24.2	h323.7c13.3,0,24.2-10.8,24.2-24.2V70.9C-154,57.5-164.8,46.7-178.2,46.7z M-325.6,121.9c2-2,4.8-3.3,7.9-3.3l71.2,0	c6.5,0,12.3,5.3,11.9,11.9c-0.2,2.8-1.4,5.3-3.3,7.2c-2,2-4.8,3.3-7.9,3.3l-71.2,0c-6.5,0-12.3-5.3-11.9-11.9	C-328.6,126.3-327.4,123.8-325.6,121.9z M-384.1,176.7l-78.5,45.3c-7.5,4.3-16.8-1.1-16.8-9.7v-90.7c0-8.6,9.4-14.1,16.8-9.7	l78.5,45.3C-376.6,161.6-376.6,172.4-384.1,176.7z M-192,212.1c-2,2-4.8,3.3-7.9,3.3l-117.1,0c-6.5,0-12.3-5.3-11.9-11.9	c0.2-2.8,1.4-5.3,3.3-7.2c2-2,4.8-3.3,7.9-3.3l117.1,0c6.5,0,12.3,5.3,11.9,11.9C-188.9,207.7-190.1,210.2-192,212.1z M-192,174.9	c-2,2-4.8,3.3-7.9,3.3l-117.1,0c-6.5,0-12.3-5.3-11.9-11.9c0.2-2.8,1.4-5.3,3.3-7.2c2-2,4.8-3.3,7.9-3.3l117.1,0	c6.5,0,12.3,5.3,11.9,11.9C-188.9,170.5-190.1,173-192,174.9z"/></svg>