<svg xmlns="http://www.w3.org/2000/svg" id="Слой_1" data-name="Слой 1" viewBox="0 0 483 98"><defs><style>.cls-1,.cls-2{fill:#fff}.cls-1{fill-rule:evenodd}</style></defs><title>pmd_logo_2</title><path d="M141.7.5H9.85A9.85,9.85,0,0,0,0,10.35v78.3A9.85,9.85,0,0,0,9.85,98.5H141.7a9.85,9.85,0,0,0,9.85-9.85V10.35A9.85,9.85,0,0,0,141.7.5Zm-60,30.63a4.54,4.54,0,0,1,3.22-1.33h29.29a4.55,4.55,0,1,1,0,9.09H84.87a4.55,4.55,0,0,1-3.22-7.76ZM61,51.61,22.6,73.78a2.44,2.44,0,0,1-3.66-2.11V27.33a2.44,2.44,0,0,1,3.66-2.11L61,47.39A2.43,2.43,0,0,1,61,51.61Zm75.07,16.26a4.54,4.54,0,0,1-3.21,1.33h-48a4.55,4.55,0,1,1,0-9.09h48a4.55,4.55,0,0,1,3.21,7.76Zm0-15.16a4.5,4.5,0,0,1-3.21,1.34h-48a4.55,4.55,0,0,1,0-9.1h48a4.55,4.55,0,0,1,3.21,7.76Z" class="cls-1"/><path d="M190.66,17h24c14.66,0,22,10.59,22,21.19s-7.37,21.27-21.86,21.27h-8.9V77H190.66Zm24,29c9.15.09,9.15-14.91,0-14.83h-8.81V46Z" class="cls-2"/><path d="M261.09,57.93h-2.72V77H243V17h24c12.37,0,22,5.68,22.28,19.75,0,11.1-4.49,17.37-11.77,19.66L293.88,77H275Zm6.18-13c9.58,0,9.58-13.73,0-13.73h-8.9V44.88Z" class="cls-2"/><path d="M313.12,40.56h24.32V53.69H313.12v9h26.44V77H297.78V17h41.78V31.24H313.12Z" class="cls-2"/><path d="M347.61,17h15.17l12.63,29.32L388.12,17h15.17V77H388l.08-17.29.94-12.12-.51-.08L380.67,68.1H370.24l-8.05-20.59-.42.08,1,12.12V77H347.61Z" class="cls-2"/><path d="M428,77H412.79V17H428Z" class="cls-2"/><path d="M452.31,17.09c12.71.25,14.49.33,18,1.86a20,20,0,0,1,11.19,10.34c1.53,3.3,1.61,4.24,1.61,18,0,13.9-.08,14.67-1.61,18.14a19,19,0,0,1-11.61,10.17c-3.64,1.27-5.68,1.44-18.3,1.44H437.31V62.85H450c13.31,0,15.93-.51,17-3.05.17-.6.42-6.53.42-13.14V34.54l-1.78-1.35c-1.44-1.19-2.71-1.44-7.28-1.44h-5.68V43.61c0,6.44-.17,11.78-.34,11.78a93.16,93.16,0,0,1-7.71-6.53l-7.29-6.52V30.05c0-6.69.17-12.46.51-12.71S444.6,16.92,452.31,17.09Z" class="cls-2"/></svg>