<svg id="Слой_2" data-name="Слой 2" xmlns="http://www.w3.org/2000/svg" viewBox="0 0 625 130"><defs><style>.cls-1{fill:#21a1fd;}</style></defs><title>pmd_newlogo</title><path class="cls-1" d="M255.06,27h30.38c18.57,0,27.8,13.42,27.8,26.84s-9.34,26.94-27.7,26.94H274.27V93.39a9.61,9.61,0,0,1-9.61,9.61h0a9.6,9.6,0,0,1-9.6-9.61Zm30.38,36.71c11.59.11,11.59-18.89,0-18.78H274.27V63.71Z"/><path class="cls-1" d="M344.26,78.85h-3.44V93.29A9.72,9.72,0,0,1,331.1,103h0a9.71,9.71,0,0,1-9.71-9.71V27h30.38c15.67,0,27.8,7.19,28.23,25,0,14.06-5.69,22-14.92,24.91l8.76,11a9.28,9.28,0,0,1-7.26,15h0a9.29,9.29,0,0,1-7.5-3.81Zm7.83-16.53c12.13,0,12.13-17.39,0-17.39H340.82V62.32Z"/><path class="cls-1" d="M410.16,56.84h22.49A8.33,8.33,0,0,1,441,65.16h0a8.32,8.32,0,0,1-8.32,8.32H410.16V84.86h24.42a9.07,9.07,0,0,1,9.07,9.07h0a9.07,9.07,0,0,1-9.07,9.07H390.73V27h43.9a9,9,0,0,1,9,9h0a9,9,0,0,1-9,9H410.16Z"/><path class="cls-1" d="M465.43,27h0a11.57,11.57,0,0,1,10.64,7l13,30.13L502.12,34a11.59,11.59,0,0,1,10.65-7h0a11.6,11.6,0,0,1,11.6,11.6V93.36a9.64,9.64,0,0,1-9.64,9.64h0a9.64,9.64,0,0,1-9.64-9.69l.06-12.21,1.18-15.35-.64-.11-7.61,19.9a9.64,9.64,0,0,1-9,6.19h0a9.62,9.62,0,0,1-9-6.13l-7.81-20-.53.11,1.29,15.35V93.39a9.61,9.61,0,0,1-9.61,9.61h0a9.61,9.61,0,0,1-9.61-9.61V38.59A11.59,11.59,0,0,1,465.43,27Z"/><path class="cls-1" d="M546,103h0a9.61,9.61,0,0,1-9.61-9.61V36.61A9.61,9.61,0,0,1,546,27h0a9.61,9.61,0,0,1,9.61,9.61V93.39A9.61,9.61,0,0,1,546,103Z"/><path class="cls-1" d="M586.11,27.11c16.1.32,18.36.43,22.76,2.36A25.44,25.44,0,0,1,623,42.57c1.93,4.18,2,5.36,2,22.75,0,17.61-.11,18.57-2,23a24.14,24.14,0,0,1-14.71,12.89c-4.61,1.61-7.19,1.82-23.19,1.82H576a8.91,8.91,0,0,1-8.91-8.91V94h0A8.91,8.91,0,0,1,576,85.07h7.19c16.86,0,20.18-.64,21.47-3.86.22-.75.54-8.27.54-16.64V52.05A5.72,5.72,0,0,0,603,47.5h0c-1.82-1.5-3.43-1.82-9.23-1.82h-7.19v15c0,8.16-.21,14.92-.43,14.92s-4.72-3.76-9.77-8.27l-9.23-8.26V43.53c0-4.16,0-8,.16-10.94a5.69,5.69,0,0,1,5.57-5.51C576.21,27,581,27,586.11,27.11Z"/><rect class="cls-1" x="141.38" y="56.33" width="79.62" height="17.34" rx="8.67"/><path class="cls-1" d="M221,32.31a8.82,8.82,0,0,0-8.88-8H171.36A177.45,177.45,0,0,1,93.74,6.9a64.56,64.56,0,1,0-1,116.66,185.85,185.85,0,0,1,78.31-17.82h1.15a8.66,8.66,0,0,0,8.64-9.28A8.81,8.81,0,0,0,172,88.4H153a22.91,22.91,0,0,1-22.84-23.15v-.5A22.91,22.91,0,0,1,153,41.6h59.37A8.68,8.68,0,0,0,221,32.31ZM102.63,70l-28,16.17-28,16.16a5.79,5.79,0,0,1-8.69-5V32.67a5.79,5.79,0,0,1,8.69-5l28,16.16,28,16.17A5.78,5.78,0,0,1,102.63,70Z"/></svg>