<?xml version="1.0" encoding="UTF-8" ?>
<!DOCTYPE svg PUBLIC "-//W3C//DTD SVG 1.1//EN" "http://www.w3.org/Graphics/SVG/1.1/DTD/svg11.dtd">
<svg width="635pt" height="635pt" viewBox="0 0 635 635" version="1.1" xmlns="http://www.w3.org/2000/svg">
<g id="#ffffffff">
</g>
<g id="#ff7801ff">
<path fill="#ff7801" opacity="1.00" d=" M 362.44 164.51 C 390.29 162.04 418.89 167.24 443.69 180.28 C 482.63 200.10 511.62 239.18 517.32 282.73 C 517.77 284.73 517.53 287.21 519.09 288.76 C 545.53 278.50 577.40 282.47 599.76 300.21 C 621.39 316.43 633.36 344.61 629.42 371.44 C 624.79 408.67 590.20 438.23 553.05 438.98 C 477.67 439.03 402.30 439.02 326.92 438.99 C 321.50 439.47 316.48 434.51 316.99 429.07 C 316.98 346.70 316.97 264.32 317.00 181.95 C 316.51 176.38 322.24 174.04 326.55 172.52 C 338.17 168.58 350.20 165.69 362.44 164.51 Z" />
<path fill="#ff7801" opacity="1.00" d=" M 268.38 197.40 C 274.45 196.42 281.37 200.31 281.25 207.02 C 282.89 259.67 284.24 312.34 285.71 364.98 C 284.58 384.99 283.11 404.99 281.67 424.98 C 281.58 428.91 281.32 433.35 278.17 436.16 C 272.10 441.15 259.83 439.49 258.48 430.67 C 256.23 396.23 252.89 361.77 255.44 327.25 C 256.29 286.61 257.31 245.96 258.47 205.33 C 259.06 200.59 263.91 197.63 268.38 197.40 Z" />
<path fill="#ff7801" opacity="1.00" d=" M 141.37 221.40 C 146.10 220.01 153.36 222.13 153.28 228.00 C 155.90 268.64 157.59 309.36 159.74 350.01 C 160.18 357.60 161.38 365.30 159.88 372.84 C 157.57 392.59 156.03 412.44 153.28 432.14 C 152.38 441.17 135.90 440.77 135.44 431.64 C 133.31 409.76 130.82 387.88 129.23 365.94 C 131.01 320.19 133.20 274.44 135.58 228.72 C 135.17 224.98 137.80 222.09 141.37 221.40 Z" />
<path fill="#ff7801" opacity="1.00" d=" M 203.32 230.41 C 207.92 229.36 213.99 229.97 216.59 234.47 C 217.99 238.48 217.55 242.79 217.79 246.96 C 219.29 287.98 221.73 328.96 223.17 369.99 C 221.82 390.59 218.97 411.06 217.52 431.65 C 216.57 442.64 196.73 442.33 196.78 431.06 C 195.41 410.67 192.96 390.38 191.66 369.99 C 193.15 326.30 195.47 282.66 196.80 238.95 C 196.44 234.83 199.34 231.25 203.32 230.41 Z" />
<path fill="#ff7801" opacity="1.00" d=" M 78.33 257.28 C 82.58 255.71 88.74 257.25 89.51 262.34 C 92.17 296.57 95.46 330.75 97.94 364.99 C 95.44 387.19 92.06 409.29 89.37 431.47 C 88.17 438.49 75.79 438.52 74.26 431.67 C 71.35 409.46 69.20 387.12 66.35 364.90 C 69.14 332.96 70.81 300.93 73.64 268.99 C 73.88 264.89 73.23 258.60 78.33 257.28 Z" />
<path fill="#ff7801" opacity="1.00" d=" M 15.40 318.42 C 18.46 318.03 22.80 317.56 24.92 320.07 C 28.66 335.29 32.16 350.66 35.25 365.99 C 32.15 380.73 28.49 395.40 24.99 410.04 C 21.37 413.00 12.56 413.05 12.22 406.82 C 9.68 393.17 6.40 379.64 4.07 365.96 C 5.76 353.29 9.24 340.87 11.25 328.23 C 12.36 324.98 11.75 320.00 15.40 318.42 Z" />
</g>
</svg>
