<svg xmlns="http://www.w3.org/2000/svg" width="22" height="23"><g fill="#FFF"><path d="M4.323 4.433s.258-.386.365-.557c.107-.17-.277-.575-.426-.703-.149-.128-.384-.064-.384-.064-1.875.831-2.813 2.536-2.94 2.877-.129.341.325.713.66.895.154.084.4-.102.55-.24L2.2 6.59l.08-.08 5.101 5.08.697-.697 1.281-1.28L4.316 4.44l.007-.007z"/><path d="M16.374 9.793l.269-.256 2.417 2.394a.077.077 0 0 0 .05.021c.047 0 .085-.042.085-.042l2.685-2.664c.079-.078 0-.12 0-.12l-2.064-2.079-.003.003-.283-.277.158-.152.338.04-.064-.449.085-.086-.127-.646c-.441-.625-1.65-1.626-1.65-1.626l-.631-.114-.064.085-.476-.07.046.405.03.03-.141.142-.78-.763S11.728 1.111 11.487.997c-.136-.063-.236-.105-.332-.105a.386.386 0 0 0-.23.084c-.191.135-.078.407-.078.407l2.814 5.2.563.558-.176.176-.065.065-.45-.062.069.446-.13.13-.023-.023a.111.111 0 0 0-.156 0 .11.11 0 0 0 0 .156l.023.023-.062.063-.016-.017a.113.113 0 0 0-.078-.032.11.11 0 0 0-.078.188l.017.017-1.184 1.19-.027-.027a.113.113 0 0 0-.078-.032.11.11 0 0 0-.078.188l.028.027-.063.063-.021-.02a.108.108 0 0 0-.077-.033.11.11 0 0 0-.08.188l.022.021-.154.156-.021.198.08.083-.001.001-.098.1-6.39 6.388-.082-.069-.265.038-.15.152-.01-.01a.108.108 0 0 0-.156 0 .11.11 0 0 0 0 .155l.012.012-.062.064-.006-.006a.108.108 0 0 0-.156 0 .111.111 0 0 0 0 .155l.007.008-1.17 1.19-.023-.025a.107.107 0 0 0-.078-.032.11.11 0 0 0-.078.188l.026.025-.062.063-.02-.019a.11.11 0 0 0-.156 0 .11.11 0 0 0 0 .156l.02.021-.086.09-.453-.082.034.506-.143.146.124.682s.19.594.58.988c.38.382.958.565.983.584l.653.114.16-.158.45.073-.073-.445.137-.134.063.063a.11.11 0 0 0 .155 0 .11.11 0 0 0 0-.156l-.062-.062.064-.062.054.054a.108.108 0 0 0 .156 0 .11.11 0 0 0 0-.155l-.053-.054 1.187-1.17.052.051c.02.022.05.032.078.032.028 0 .056-.01.078-.032a.112.112 0 0 0 0-.156l-.051-.05.063-.063.044.044a.11.11 0 0 0 .155 0 .11.11 0 0 0 0-.156l-.043-.043.133-.13.048-.285-.071-.07v-.002l.13-.128 6.346-6.348-.003-.006.124.128.199-.022.179-.18.029.03a.111.111 0 0 0 .156 0 .11.11 0 0 0 0-.157l-.03-.029.064-.062.022.022a.11.11 0 0 0 .155 0 .11.11 0 0 0 0-.156l-.022-.023 1.186-1.188.03.031a.11.11 0 0 0 .156 0 .11.11 0 0 0 0-.156l-.031-.03.063-.064.024.025c.022.021.05.032.078.032a.11.11 0 0 0 .078-.188l-.024-.025.132-.132.44.07-.071-.44z"/><path d="M17.255 16.968l-2.813-2.132-.501-.516L12 16.261l.488.466 1.833 2.749 2.472 2.707 2.849-2.658z"/></g></svg>