<?xml version="1.0" standalone="no"?>
<!DOCTYPE svg PUBLIC "-//W3C//DTD SVG 20010904//EN"
 "http://www.w3.org/TR/2001/REC-SVG-20010904/DTD/svg10.dtd">
<svg version="1.0" xmlns="http://www.w3.org/2000/svg"
 width="700.000000pt" height="700.000000pt" viewBox="0 0 700.000000 700.000000"
 preserveAspectRatio="xMidYMid meet">
<metadata>
Created by potrace 1.11, written by Peter Selinger 2001-2013
</metadata>
<g transform="translate(0.000000,700.000000) scale(0.100000,-0.100000)"
fill="#000000" stroke="none">
<path d="M3298 6995 c-2 -1 -41 -5 -88 -9 -100 -7 -225 -22 -295 -36 -27 -5
-61 -12 -75 -14 -596 -109 -1206 -409 -1660 -817 -126 -114 -178 -166 -331
-335 -107 -118 -286 -370 -386 -545 -158 -274 -309 -656 -369 -932 -20 -90
-53 -272 -59 -322 -4 -33 -9 -69 -11 -80 -18 -95 -25 -522 -12 -690 8 -104 25
-233 42 -320 2 -11 6 -36 10 -55 49 -272 156 -595 283 -857 449 -928 1279
-1611 2270 -1868 72 -19 142 -36 155 -39 13 -2 60 -11 106 -20 46 -9 111 -19
145 -22 34 -3 65 -8 68 -9 15 -10 227 -20 409 -20 188 0 341 8 430 21 144 21
295 48 345 61 33 8 67 16 75 18 109 22 388 117 549 187 121 53 308 148 353
179 14 11 29 19 33 19 25 0 384 257 494 354 121 106 294 279 366 366 21 25 41
47 44 50 4 3 45 55 91 115 332 436 547 915 654 1456 14 70 28 155 32 190 3 35
8 67 10 70 9 17 19 214 18 399 0 188 -6 331 -19 420 -3 19 -7 56 -10 81 -3 25
-7 54 -9 65 -2 10 -11 60 -21 109 -85 456 -276 915 -543 1305 -56 82 -194 265
-211 280 -3 3 -35 38 -70 78 -478 546 -1168 947 -1888 1097 -100 20 -248 43
-393 60 -56 7 -526 16 -532 10z m2132 -1844 c166 -46 274 -153 324 -320 14
-49 16 -184 16 -1312 -1 -1195 -1 -1260 -19 -1311 -61 -177 -199 -292 -374
-315 -51 -6 -3634 -9 -3732 -2 -27 1 -65 9 -82 16 -18 7 -33 11 -33 8 0 -3
-27 9 -59 26 -112 59 -203 177 -231 299 -6 29 -9 490 -7 1315 l2 1270 36 75
c60 126 159 211 291 250 60 18 141 18 1933 19 1769 0 1874 -1 1935 -18z"/>
<path d="M1814 3560 c0 -500 2 -910 4 -910 5 0 253 170 681 465 175 121 391
269 479 330 88 60 158 113 156 117 -2 4 -104 75 -227 159 -122 84 -256 176
-297 205 -41 28 -190 130 -330 227 -140 96 -301 207 -357 246 -56 39 -103 71
-105 71 -2 0 -4 -409 -4 -910z"/>
<path d="M3595 4396 c-42 -18 -83 -69 -91 -112 -13 -68 31 -150 94 -176 17 -7
126 -11 287 -12 251 -1 262 -1 305 21 112 56 115 208 5 270 -39 22 -48 23
-305 22 -198 0 -273 -3 -295 -13z"/>
<path d="M3632 3649 c-72 -15 -132 -84 -132 -152 0 -61 45 -124 105 -147 21
-8 217 -11 677 -11 634 0 647 0 687 21 91 46 112 159 45 239 -45 54 -47 54
-726 55 -345 1 -640 -2 -656 -5z"/>
<path d="M3592 2943 c-69 -34 -106 -116 -83 -186 14 -41 34 -66 75 -93 28 -18
59 -19 684 -19 584 0 659 1 691 16 123 55 127 220 7 278 -42 21 -54 21 -692
21 -577 -1 -653 -3 -682 -17z"/>
</g>
</svg>
