<svg width="100%" height="88.888%" viewBox="0 0 18 16" fill="none" xmlns="http://www.w3.org/2000/svg">
<path d="M16.715 4.395L10.385 8.55C10.2763 8.62084 10.1884 8.71917 10.13 8.835L9.165 10.77C9.151 10.8021 9.12793 10.8294 9.09862 10.8486C9.06931 10.8678 9.03504 10.8781 9 10.8781C8.96497 10.8781 8.93069 10.8678 8.90139 10.8486C8.87208 10.8294 8.84901 10.8021 8.835 10.77L7.87 8.835C7.81164 8.71917 7.72366 8.62084 7.615 8.55L1.285 4.395C1.25318 4.35721 1.20764 4.33361 1.15841 4.32939C1.10919 4.32517 1.0603 4.34068 1.0225 4.3725C0.984711 4.40433 0.961108 4.44986 0.956888 4.49909C0.952669 4.54832 0.968178 4.59721 1 4.635L3.645 9.78C3.65786 9.80694 3.66419 9.83652 3.66349 9.86636C3.66278 9.8962 3.65505 9.92545 3.64093 9.95175C3.62681 9.97804 3.60669 10.0006 3.5822 10.0177C3.55772 10.0348 3.52956 10.0458 3.5 10.05H1.91C1.87074 10.0496 1.83238 10.0618 1.80047 10.0847C1.76856 10.1075 1.74476 10.14 1.73251 10.1773C1.72026 10.2146 1.7202 10.2548 1.73233 10.2922C1.74446 10.3295 1.76817 10.362 1.8 10.385L8.89 15.465C8.92241 15.4871 8.96075 15.499 9 15.499C9.03926 15.499 9.07759 15.4871 9.11 15.465L16.2 10.385C16.2318 10.362 16.2555 10.3295 16.2677 10.2922C16.2798 10.2548 16.2797 10.2146 16.2675 10.1773C16.2552 10.14 16.2314 10.1075 16.1995 10.0847C16.1676 10.0618 16.1293 10.0496 16.09 10.05H14.5C14.4687 10.0488 14.4382 10.0399 14.4112 10.024C14.3842 10.0082 14.3615 9.98594 14.3452 9.95922C14.3288 9.9325 14.3194 9.90215 14.3176 9.87088C14.3158 9.83962 14.3218 9.8084 14.335 9.78L17 4.635C17.0318 4.59721 17.0473 4.54832 17.0431 4.49909C17.0389 4.44986 17.0153 4.40433 16.9775 4.3725C16.9397 4.34068 16.8908 4.32517 16.8416 4.32939C16.7924 4.33361 16.7468 4.35721 16.715 4.395Z" fill="white"/>
<path d="M9.14001 0.584999L9.79001 1.91C9.80157 1.93189 9.81791 1.95089 9.83782 1.96561C9.85773 1.98032 9.88069 1.99037 9.90501 1.995L11.37 2.205C11.3987 2.20921 11.4256 2.22138 11.4477 2.24011C11.4698 2.25885 11.4862 2.28342 11.4951 2.31101C11.5039 2.33861 11.5049 2.36814 11.4978 2.39624C11.4907 2.42434 11.4759 2.4499 11.455 2.47L10.395 3.5C10.3779 3.51772 10.365 3.53904 10.3572 3.5624C10.3494 3.58576 10.347 3.61057 10.35 3.635L10.6 5.09C10.6055 5.11805 10.6029 5.14708 10.5924 5.17368C10.582 5.20029 10.5641 5.22335 10.541 5.24016C10.5179 5.25697 10.4905 5.26683 10.462 5.26857C10.4334 5.27031 10.405 5.26387 10.38 5.25L9.07001 4.565C9.04872 4.55271 9.02458 4.54624 9.00001 4.54624C8.97543 4.54624 8.95129 4.55271 8.93001 4.565L7.62001 5.25C7.59502 5.26387 7.56659 5.27031 7.53806 5.26857C7.50953 5.26683 7.48209 5.25697 7.45898 5.24016C7.43587 5.22335 7.41804 5.20029 7.40759 5.17368C7.39714 5.14708 7.39451 5.11805 7.40001 5.09L7.65001 3.635C7.65305 3.61057 7.6506 3.58576 7.64281 3.5624C7.63502 3.53904 7.62211 3.51772 7.60501 3.5L6.54501 2.47C6.52413 2.4499 6.50931 2.42434 6.50223 2.39624C6.49514 2.36814 6.49608 2.33861 6.50493 2.31101C6.51378 2.28342 6.5302 2.25885 6.5523 2.24011C6.57441 2.22138 6.60133 2.20921 6.63001 2.205L8.09501 2C8.11932 1.99537 8.14229 1.98532 8.16219 1.97061C8.1821 1.95589 8.19844 1.93689 8.21001 1.915L8.86001 0.589999C8.87211 0.563289 8.89154 0.54056 8.91604 0.52445C8.94054 0.50834 8.96911 0.499511 8.99843 0.498987C9.02775 0.498464 9.05661 0.506267 9.08167 0.521492C9.10673 0.536717 9.12696 0.558738 9.14001 0.584999Z" fill="white"/>
</svg>
