<svg xmlns="http://www.w3.org/2000/svg" width="650" height="152" viewBox="0 0 650 152">
    <defs>
        <clipPath id="a">
            <path d="M0 114h436.667V0H0z"/>
        </clipPath>
    </defs>
    <g clip-path="url(#a)" transform="matrix(1.33333 0 0 -1.33333 0 152)">
        <rect y="24" x="33" height="79" width="62" id="rectangle" style="fill:#ffffff;stroke:none"/>
        <path d="M33.745 57H0V42.607C0 18.43 19.58 0 43.73 0H84.01C90.08 0 95 4.93 95 11.006v13.82H76.27c-19.42 0-38.593 13.742-42.525 32.174"
              fill="#24c1ce"/>
        <path d="M33 63.913C33 85.723 54.486 103 76.27 103H95c-.003 6.073-4.92 11-10.992 11H43.73C19.58 114 0 95.573 0 71.393V57h33.745c-.478 2.242-.745 4.55-.745 6.913"
              fill="#3dd0ad"/>
        <path d="M68 93c-5.523 0-10-4.475-10-10 0-5.52 4.477-10 10-10 5.522 0 10 4.48 10 10 0 5.525-4.478 10-10 10"
              fill="#404953"/>
        <path d="M64 90c-1.654 0-3-1.345-3-2.997C61 85.348 62.346 84 64 84s3 1.348 3 3.003C67 88.655 65.654 90 64 90"
              fill="#fff"/>
        <path d="M56 58h27v8H56z" fill="#404953"/>
        <path d="M18.002 67c-5.52 0-10-4.482-10-10.002C8 51.478 12.48 47 18 47c5.522 0 10 4.48 10 9.998C28 62.518 23.523 67 18 67"
              fill="#ffda00"/>
        <path d="M126.978 89.023C118.108 97.893 106.62 102.547 95 103V53.3l31.978-31.978c18.696 18.695 18.696 49.006 0 67.7M95 38V14.228c6.228.337 12.38 2.35 17.722 6.05z"
              fill="#404953"/>
        <path d="M33.745 57H33V24.426C33 16.982 39.034 10.974 46.478 11L95 11.182v13.644H76.27c-19.42 0-38.593 13.742-42.525 32.174"
              fill="#3a4287"/>
    </g>
</svg>