<svg width="100%" height="95%" viewBox="2.5 0 57 54" fill="none" xmlns="http://www.w3.org/2000/svg">
<path d="M45.5 48.5V37.5L54 43L45.5 48.5Z" fill="white"/>
<mask id="mask0" mask-type="alpha" maskUnits="userSpaceOnUse" x="5" y="6" width="52" height="45">
<path d="M10.4593 37.5814C12.2984 37.9604 15.2906 38.1055 24.0511 38.2667C29.1037 38.3475 33.7409 38.3133 38.6281 38.0959C39.9969 34.5307 43.4529 32 47.5 32C48.4909 32 49.4464 32.1517 50.3445 32.4332C50.6102 31.2462 50.7665 29.6801 50.9462 26.9288C51.0179 25.6846 51.0179 18.619 50.9462 17.3747C50.7729 14.7632 50.743 11.4245 49.0362 8.73965C48.2425 7.69416 46.8907 6.88338 45.4493 6.61286C43.6452 6.27052 35.9489 6 28.017 6C20.0672 6 12.3881 6.27057 10.5856 6.61286C9.43181 6.82871 8.4043 7.35104 7.52098 8.16265C5.65025 9.89691 5.51361 12.8694 5.23207 15.3734C4.89066 19.9077 4.95636 23.9657 5.23207 28.9293C5.41206 31.1286 5.53838 32.0289 5.86268 33.1111C6.24076 34.4101 6.72801 35.3463 7.34081 35.96C8.13361 36.7706 9.2149 37.3296 10.4593 37.5814Z" fill="black"/>
<path fill-rule="evenodd" clip-rule="evenodd" d="M47.5 51C52.7467 51 57 46.7467 57 41.5C57 37.2442 54.2016 33.642 50.3445 32.4332C50.2116 33.0268 50.0513 33.5255 49.847 34.0303C49.468 34.9861 49.1446 35.4905 48.5848 36.0494C47.7068 36.9097 46.5874 37.4819 45.3759 37.6897C43.0375 37.8656 40.8079 37.9989 38.6281 38.0959C38.2224 39.1527 38 40.3004 38 41.5C38 46.7467 42.2533 51 47.5 51Z" fill="black"/>
</mask>
<g mask="url(#mask0)">
<path d="M35.6415 21.6827C31.4238 19.4288 27.3854 17.3567 23.2573 15.1933V28.1356C27.6013 25.7741 32.18 23.6114 35.6595 21.6828H35.6415V21.6827Z" fill="white"/>
<path d="M35.6415 21.6827C31.4238 19.4288 23.2573 15.1933 23.2573 15.1933L34.1455 22.5114C34.1463 22.5114 32.1621 23.6115 35.6415 21.6827Z" fill="#E8E0E0"/>
<path d="M24.0511 38.2667C15.2906 38.1055 12.2984 37.9604 10.4593 37.5814C9.2149 37.3296 8.13361 36.7706 7.34081 35.96C6.72801 35.3463 6.24076 34.4101 5.86268 33.1111C5.53838 32.0289 5.41206 31.1286 5.23207 28.9293C4.95636 23.9657 4.89066 19.9077 5.23207 15.3734C5.51361 12.8694 5.65025 9.89691 7.52098 8.16265C8.4043 7.35104 9.43181 6.82871 10.5856 6.61286C12.3881 6.27057 20.0672 6 28.017 6C35.9489 6 43.6452 6.27052 45.4493 6.61286C46.8907 6.88338 48.2425 7.69416 49.0362 8.73965C50.743 11.4245 50.7729 14.7632 50.9462 17.3747C51.0179 18.619 51.0179 25.6846 50.9462 26.9288C50.6766 31.056 50.4598 32.5163 49.847 34.0303C49.468 34.9861 49.1446 35.4905 48.5848 36.0494C47.7068 36.9097 46.5874 37.4819 45.3759 37.6897C37.7948 38.2598 31.3574 38.3836 24.0511 38.2667ZM35.6604 21.6828C31.4426 19.4288 27.4042 17.3388 23.2762 15.1753V28.1185C27.6202 25.7571 32.1997 23.5935 35.6783 21.6648L35.6604 21.6828Z" fill="#FF0000"/>
</g>
</svg>
